M48
; DRILL file {KiCad 8.0.1-rc1} date 2024-04-08T17:15:35-0400
; FORMAT={-:-/ absolute / inch / decimal}
; #@! TF.CreationDate,2024-04-08T17:15:35-04:00
; #@! TF.GenerationSoftware,Kicad,Pcbnew,8.0.1-rc1
; #@! TF.FileFunction,Plated,1,2,PTH
FMAT,2
INCH
; #@! TA.AperFunction,Plated,PTH,ComponentDrill
T1C0.0315
; #@! TA.AperFunction,Plated,PTH,ComponentDrill
T2C0.0354
; #@! TA.AperFunction,Plated,PTH,ComponentDrill
T3C0.0512
%
G90
G05
T1
X2.1457Y-4.5228
X2.1457Y-5.1228
X2.2835Y-2.2835
X2.2835Y-2.3622
X2.5787Y-4.5228
X2.5787Y-5.1228
X2.7559Y-2.2835
X2.7559Y-2.3622
X2.7953Y-3.1646
X2.7953Y-3.7646
X3.1937Y-2.0819
X3.1937Y-2.6819
X3.5283Y-2.0819
X3.5283Y-2.6819
X4.2126Y-2.0819
X4.2126Y-2.6819
X5.6299Y-4.9559
X5.6299Y-5.5559
X5.6693Y-3.1299
X5.6693Y-3.7299
T2
X3.1102Y-3.2283
X3.1102Y-3.6614
X3.1191Y-4.4488
X3.1299Y-4.8819
X3.2102Y-3.2283
X3.2102Y-3.6614
X3.2191Y-4.4488
X3.2299Y-4.8819
X3.5522Y-4.8819
X3.563Y-4.4291
X3.5719Y-3.2283
X3.5827Y-3.6811
X3.6522Y-4.8819
X3.663Y-4.4291
X3.6719Y-3.2283
X3.6827Y-3.6811
X3.9961Y-4.4291
X4.0157Y-4.8819
X4.0354Y-3.2283
X4.0354Y-3.6811
X4.0961Y-4.4291
X4.1157Y-4.8819
X4.1354Y-3.2283
X4.1354Y-3.6811
X4.4291Y-3.2283
X4.4291Y-3.6811
X4.4291Y-4.4291
X4.4488Y-4.8819
X4.5291Y-3.2283
X4.5291Y-3.6811
X4.5291Y-4.4291
X4.5488Y-4.8819
X4.8228Y-3.2283
X4.8317Y-3.6811
X4.8514Y-4.4291
X4.8907Y-4.8819
X4.9228Y-3.2283
X4.9317Y-3.6811
X4.9514Y-4.4291
X4.9907Y-4.8819
X5.2362Y-3.6811
X5.2362Y-4.4291
X5.2451Y-3.2283
X5.2451Y-4.8819
X5.3362Y-3.6811
X5.3362Y-4.4291
X5.3451Y-3.2283
X5.3451Y-4.8819
T3
X2.3031Y-3.061
X2.3031Y-3.9469
M30
